<?xml version="1.0" encoding="utf-8"?>
<!-- Generator: Adobe Illustrator 15.1.0, SVG Export Plug-In  -->
<!DOCTYPE svg PUBLIC "-//W3C//DTD SVG 1.1//EN" "http://www.w3.org/Graphics/SVG/1.1/DTD/svg11.dtd" [
	<!ENTITY ns_flows "http://ns.adobe.com/Flows/1.0/">
]>
<svg version="1.1"
	 xmlns="http://www.w3.org/2000/svg" xmlns:xlink="http://www.w3.org/1999/xlink" xmlns:a="http://ns.adobe.com/AdobeSVGViewerExtensions/3.0/"
	 x="0px" y="0px" width="231px" height="72px" viewBox="139.6 180.8 231 72" enable-background="new 139.6 180.8 231 72"
	 xml:space="preserve">
<defs>
</defs>
<ellipse display="none" fill="#FFFFFF" stroke="#000000" stroke-miterlimit="10" cx="362.6" cy="173.8" rx="362.1" ry="173.3"/>
<path fill="#C60C46" d="M156.9,218.6c0.5-4.5-1-6.8-4.7-8.5C152.2,216.1,154.3,217.2,156.9,218.6z"/>
<path fill="#C60C46" d="M156.9,218.6c0.5,4.5-1,6.8-4.7,8.5C152.2,221.1,154.3,220,156.9,218.6z"/>
<path fill="#C60C46" d="M145.9,212.9c6.9,0.6,8.7,8.7,1,10.5C151.5,220.8,150.8,216,145.9,212.9z"/>
<path fill="#C60C46" d="M140.9,215c2.9-4.5,9-0.4,7.3,4.7C147.5,216.1,144.7,213.9,140.9,215z"/>
<path fill="#C60C46" d="M140.2,219.1c-2-3.3,2.7-5.1,4.8-3C142.1,215.8,140.3,217.6,140.2,219.1z"/>
<path fill="#C60C46" d="M142.3,217c-3.6,2.3-1.1,5.2,3.5,4.5C142.8,221,141.3,219.6,142.3,217z"/>
<path fill="#C60C46" d="M143.8,216.5c-3,2-0.4,4.9,3.5,4.2C147.9,219,145.7,216.2,143.8,216.5z"/>
<path fill="#C60C46" d="M148.9,217.6c1.9,4.2-3.9,8.1-7.5,3.8C145.5,223.5,149.2,221.3,148.9,217.6z"/>
<path fill="#C60C46" d="M353,218.6c-0.5-4.5,1-6.8,4.7-8.5C357.8,216.1,355.7,217.2,353,218.6z"/>
<path fill="#C60C46" d="M353,218.6c-0.5,4.5,1,6.8,4.7,8.5C357.8,221.1,355.7,220,353,218.6z"/>
<path fill="#C60C46" d="M364.1,212.9c-6.9,0.6-8.7,8.7-1,10.5C358.4,220.8,359.2,216,364.1,212.9z"/>
<path fill="#C60C46" d="M369.1,215c-2.9-4.5-9-0.4-7.3,4.7C362.4,216.1,365.3,213.9,369.1,215z"/>
<path fill="#C60C46" d="M369.8,219.1c2-3.3-2.7-5.1-4.8-3C367.9,215.8,369.7,217.6,369.8,219.1z"/>
<path fill="#C60C46" d="M367.7,217c3.6,2.3,1.1,5.2-3.5,4.5C367.1,221,368.7,219.6,367.7,217z"/>
<path fill="#C60C46" d="M366.1,216.5c3,2,0.4,4.9-3.5,4.2C362.1,219,364.2,216.2,366.1,216.5z"/>
<path fill="#C60C46" d="M361,217.6c-1.9,4.2,3.9,8.1,7.5,3.8C364.4,223.5,360.7,221.3,361,217.6z"/>
<rect x="223.5" y="218.4" fill="#C60C46" width="129.7" height="0.4"/>
<rect x="156.9" y="218.4" fill="#C60C46" width="41.3" height="0.4"/>
<path d="M174.6,235.2c-0.6,1-1.6,2-3.4,2c-2.2,0-3.7-1.7-3.7-3.7c0-1.1,0.5-2,1.1-2.6c0.6-0.5,1.4-1.1,2.6-1.1c1,0,1.6,0.3,1.9,0.5
	c0.1-0.1,0.2-0.2,0.3-0.3h0.2l0.4,1.7h-0.2c-0.6-0.9-1.6-1.3-2.5-1.3c-0.8,0-1.4,0.2-2,0.8c-0.7,0.7-0.9,1.5-0.9,2.2
	c0,1.7,1.1,3.2,3.1,3.2c1.1,0,2-0.6,2.7-1.6L174.6,235.2z"/>
<path d="M183.7,230h1.6v0.2c-0.3,0-0.4,0.2-0.4,0.4v5.8c0,0.2,0.1,0.4,0.4,0.5v0.1h-1.6v-0.1c0.3,0,0.4-0.2,0.4-0.4v-3.1h-5.4v3.1
	c0,0.2,0.1,0.4,0.4,0.4v0.1h-1.5v-0.1c0.2-0.1,0.4-0.2,0.4-0.4v-5.8c0-0.3-0.1-0.4-0.4-0.5V230h1.5v0.2c-0.3,0.1-0.4,0.2-0.4,0.5
	v2.2h5.4v-2.2c0-0.2-0.1-0.4-0.4-0.5V230z"/>
<path d="M191.8,229.8h0.3l3.3,6.6c0.1,0.3,0.3,0.4,0.5,0.5v0.1h-1.5v-0.1c0.2,0,0.2-0.1,0.2-0.2c0-0.1,0-0.2-0.1-0.3l-0.8-1.6h-3.6
	l-0.7,1.5c-0.1,0.2-0.1,0.3-0.1,0.4c0,0.1,0.1,0.2,0.2,0.3v0.1h-1.4v-0.1c0.3-0.1,0.4-0.3,0.6-0.6L191.8,229.8z M191.9,231l-1.5,3.1
	h3L191.9,231z"/>
<path d="M205.2,230h1.6v0.2c-0.4,0-0.4,0.3-0.4,0.6l0.4,5.5c0,0.5,0.1,0.6,0.4,0.6v0.1h-1.6v-0.1c0.3-0.1,0.4-0.3,0.4-0.7l-0.4-5.5
	l-2.7,5.4h-0.2l-2.8-5.3l-0.4,5.4c0,0.5,0.1,0.7,0.3,0.7v0.1h-1.4v-0.1c0.2-0.1,0.4-0.2,0.4-0.5l0.4-5.5c0-0.4,0-0.7-0.5-0.7V230
	h1.6l2.4,4.7L205.2,230z"/>
<path d="M210.4,230h2.8c1.1,0,2.2,0.3,2.2,1.6c0,1-0.7,1.4-1.6,1.6c1.2,0.1,2.1,0.8,2.1,1.9c0,1.3-1,2-2.2,2h-3.2v-0.1
	c0.2,0,0.3-0.2,0.3-0.4v-5.9c0-0.2-0.1-0.4-0.4-0.5L210.4,230z M211.6,236.4h1.7c1.7,0,1.8-1,1.8-1.4c0-1.6-1.9-1.6-2.4-1.6H212
	v-0.5h0.8c0.9,0,1.8-0.2,1.8-1.3c0-0.9-0.8-1.1-1.5-1.1h-1.4V236.4z"/>
<path d="M219,230h5l0.4,1.1h-0.2c-0.2-0.2-0.5-0.4-1.1-0.4h-2.9v2.2h3.4c0.2,0,0.4-0.1,0.5-0.4h0.1v1.3H224
	c-0.1-0.2-0.2-0.3-0.5-0.3h-3.4v3h3c0.6,0,0.9-0.2,1.1-0.5h0.2l-0.4,1.1H219v-0.1c0.2-0.1,0.4-0.2,0.4-0.4v-5.9
	c0-0.2-0.1-0.4-0.4-0.5V230z"/>
<path d="M227.8,230h3c0.9,0,2.1,0.5,2.1,1.8c0,1.2-0.9,1.7-2.2,1.8c1.2,0.7,1.8,1.4,2.5,2.6c0.2,0.4,0.4,0.6,0.6,0.7v0.1h-1.7v-0.1
	c0.2-0.1,0.3-0.2,0.3-0.3c0-0.7-1.4-2.6-3-3.1v-0.4h0.8c0.7,0,1.2-0.1,1.5-0.4c0.2-0.2,0.3-0.5,0.3-0.9c0-0.8-0.7-1.2-1.6-1.2H229
	v5.7c0,0.3,0.1,0.5,0.4,0.6v0.1h-1.5v-0.1c0.3-0.1,0.4-0.3,0.4-0.5v-5.7c0-0.3-0.1-0.5-0.4-0.6V230z"/>
<path d="M240.9,233.6c0-2.1,1.7-3.8,4-3.8c2.4,0,3.9,1.9,3.9,3.7c0,2-1.6,3.8-4,3.8C242.2,237.3,240.9,235.2,240.9,233.6z
	 M247.2,235.8c0.6-0.5,0.9-1.2,0.9-2.2c0-1.4-1.2-3.3-3.3-3.3c-1.4,0-3.1,1.1-3.1,3c0,0.9,0.4,1.8,1.1,2.5c0.6,0.6,1.3,0.9,2.2,0.9
	C245.9,236.7,246.7,236.3,247.2,235.8z"/>
<path d="M252,230h4.7l0.4,1h-0.2c-0.2-0.3-0.5-0.4-0.9-0.4h-2.9v2.3h3.1c0.2,0,0.4-0.1,0.5-0.3h0.1v1.3h-0.1c0-0.2-0.3-0.4-0.5-0.4
	h-3.1v2.8c0,0.3,0.1,0.5,0.4,0.6v0.1H252v-0.1c0.2-0.1,0.3-0.2,0.3-0.4v-5.9c0-0.2-0.1-0.4-0.4-0.4L252,230L252,230z"/>
<path d="M271.6,235.2c-0.6,1-1.6,2-3.4,2c-2.2,0-3.7-1.7-3.7-3.7c0-1.1,0.5-2,1.1-2.6c0.6-0.5,1.4-1.1,2.6-1.1c1,0,1.6,0.3,1.9,0.5
	c0.1-0.1,0.2-0.2,0.3-0.3h0.2l0.4,1.7h-0.2c-0.6-0.9-1.6-1.3-2.5-1.3c-0.8,0-1.4,0.2-2,0.8c-0.7,0.7-0.9,1.5-0.9,2.2
	c0,1.7,1.1,3.2,3.1,3.2c1.1,0,2-0.6,2.7-1.6L271.6,235.2z"/>
<path d="M274.3,233.6c0-2.1,1.7-3.8,4-3.8c2.4,0,3.9,1.9,3.9,3.7c0,2-1.6,3.8-4,3.8C275.6,237.3,274.3,235.2,274.3,233.6z
	 M280.6,235.8c0.6-0.5,0.9-1.2,0.9-2.2c0-1.4-1.2-3.3-3.3-3.3c-1.4,0-3.1,1.1-3.1,3c0,0.9,0.4,1.8,1.1,2.5c0.6,0.6,1.3,0.9,2.2,0.9
	C279.3,236.7,280.1,236.3,280.6,235.8z"/>
<path d="M291.8,230h1.6v0.2c-0.4,0-0.4,0.3-0.4,0.6l0.4,5.5c0,0.5,0.1,0.6,0.4,0.6v0.1h-1.6v-0.1c0.3-0.1,0.4-0.3,0.4-0.7l-0.4-5.5
	l-2.7,5.4h-0.2l-2.8-5.3l-0.4,5.4c0,0.5,0.1,0.7,0.3,0.7v0.1H285v-0.1c0.2-0.1,0.4-0.2,0.4-0.5l0.4-5.5c0-0.4,0-0.7-0.5-0.7V230h1.6
	l2.4,4.7L291.8,230z"/>
<path d="M303.4,230h1.6v0.2c-0.4,0-0.4,0.3-0.4,0.6l0.4,5.5c0,0.5,0.1,0.6,0.4,0.6v0.1h-1.6v-0.1c0.3-0.1,0.4-0.3,0.4-0.7l-0.4-5.5
	l-2.7,5.4h-0.2l-2.8-5.3l-0.4,5.4c0,0.5,0.1,0.7,0.3,0.7v0.1h-1.4v-0.1c0.2-0.1,0.4-0.2,0.4-0.5l0.4-5.5c0-0.4,0-0.7-0.5-0.7V230
	h1.6l2.4,4.7L303.4,230z"/>
<path d="M308.5,230h5l0.4,1.1h-0.2c-0.2-0.2-0.5-0.4-1.1-0.4h-2.9v2.2h3.4c0.2,0,0.4-0.1,0.5-0.4h0.1v1.3h-0.1
	c-0.1-0.2-0.2-0.3-0.5-0.3h-3.4v3h3c0.6,0,0.9-0.2,1.1-0.5h0.2l-0.4,1.1h-5.1v-0.1c0.2-0.1,0.4-0.2,0.4-0.4v-5.9
	c0-0.2-0.1-0.4-0.4-0.5V230z"/>
<path d="M317.4,230h3c0.9,0,2.1,0.5,2.1,1.8c0,1.2-0.9,1.7-2.2,1.8c1.2,0.7,1.8,1.4,2.5,2.6c0.2,0.4,0.4,0.6,0.6,0.7v0.1h-1.7v-0.1
	c0.2-0.1,0.3-0.2,0.3-0.3c0-0.7-1.4-2.6-3-3.1v-0.4h0.8c0.7,0,1.2-0.1,1.5-0.4c0.2-0.2,0.3-0.5,0.3-0.9c0-0.8-0.7-1.2-1.6-1.2h-1.4
	v5.7c0,0.3,0.1,0.5,0.4,0.6v0.1h-1.5v-0.1c0.3-0.1,0.4-0.3,0.4-0.5v-5.7c0-0.3-0.1-0.5-0.4-0.6V230z"/>
<path d="M333.1,235.2c-0.6,1-1.6,2-3.4,2c-2.2,0-3.7-1.7-3.7-3.7c0-1.1,0.5-2,1.1-2.6c0.6-0.5,1.4-1.1,2.6-1.1c1,0,1.6,0.3,1.9,0.5
	c0.1-0.1,0.2-0.2,0.3-0.3h0.2l0.4,1.7h-0.2c-0.6-0.9-1.6-1.3-2.5-1.3c-0.8,0-1.4,0.2-2,0.8c-0.7,0.7-0.9,1.5-0.9,2.2
	c0,1.7,1.1,3.2,3.1,3.2c1.1,0,2-0.6,2.7-1.6L333.1,235.2z"/>
<path d="M336,230h5l0.4,1.1h-0.2c-0.2-0.2-0.5-0.4-1.1-0.4h-2.9v2.2h3.4c0.2,0,0.4-0.1,0.5-0.4h0.1v1.3h-0.1
	c-0.1-0.2-0.2-0.3-0.5-0.3h-3.4v3h3c0.6,0,0.9-0.2,1.1-0.5h0.2l-0.4,1.1H336v-0.1c0.2-0.1,0.4-0.2,0.4-0.4v-5.9
	c0-0.2-0.1-0.4-0.4-0.5V230z"/>
<path d="M197,250.7c0,1.2-0.8,2-2,2c-1.6,0-2.2-1.2-2.2-2c0-0.9,0.5-1.7,1.6-1.9c-0.6-0.2-1-0.5-1-1.1c0-0.6,0.5-1,1.1-1
	c0.3,0,0.5,0.1,0.7,0.2c0.1-0.1,0.2-0.1,0.2-0.2l0.1,0l0.1,1h-0.1c-0.2-0.3-0.5-0.6-0.9-0.6c-0.4,0-0.7,0.2-0.7,0.7
	c0,0.5,0.5,0.9,1.3,0.9v0.4c-1,0-1.8,0.6-1.8,1.6c0,0.8,0.6,1.5,1.7,1.5c1.1,0,1.4-0.9,1.4-1.5h-1.6c-0.2,0-0.3,0.1-0.4,0.3h-0.1
	l0.1-0.7h3.8c0.1,0,0.3-0.1,0.3-0.3h0.1v0.8H197z"/>
<path d="M210.6,251.1c-0.5,0.8-1.3,1.6-2.7,1.6c-1.8,0-2.9-1.4-2.9-3c0-0.9,0.4-1.6,0.9-2.1c0.5-0.4,1.1-0.8,2.1-0.8
	c0.8,0,1.3,0.3,1.5,0.4c0.1-0.1,0.2-0.2,0.3-0.2h0.1l0.3,1.4H210c-0.5-0.7-1.3-1.1-2-1.1c-0.6,0-1.1,0.2-1.6,0.6
	c-0.6,0.5-0.7,1.2-0.7,1.8c0,1.3,0.9,2.6,2.5,2.6c0.9,0,1.6-0.5,2.2-1.3L210.6,251.1z"/>
<path d="M213.1,246.9h1.3v0.1c-0.2,0-0.3,0.2-0.3,0.4v4.7c0,0.2,0.1,0.3,0.3,0.4v0.1h-1.2v-0.1c0.2-0.1,0.3-0.2,0.3-0.4v-4.7
	c0-0.2-0.1-0.3-0.3-0.4V246.9z"/>
<path d="M221.4,246.9h1.2v0.1c-0.3,0.1-0.4,0.3-0.5,0.6l-2.2,5.1h-0.3l-2.3-5c-0.2-0.4-0.3-0.7-0.5-0.7v-0.1h1.3v0.1
	c-0.1,0-0.2,0.1-0.2,0.3c0,0.1,0,0.1,0,0.2l2,4.3l1.8-4.2c0-0.1,0.1-0.2,0.1-0.3c0-0.1-0.1-0.2-0.2-0.3V246.9z"/>
<path d="M224.9,246.9h1.3v0.1c-0.2,0-0.3,0.2-0.3,0.4v4.7c0,0.2,0.1,0.3,0.3,0.4v0.1h-1.2v-0.1c0.2-0.1,0.3-0.2,0.3-0.4v-4.7
	c0-0.2-0.1-0.3-0.3-0.4V246.9z"/>
<path d="M234.5,251.1c-0.5,0.8-1.3,1.6-2.7,1.6c-1.8,0-3-1.4-3-3c0-0.9,0.4-1.6,0.9-2.1c0.5-0.4,1.1-0.8,2.1-0.8
	c0.8,0,1.3,0.3,1.5,0.4c0.1-0.1,0.2-0.2,0.3-0.2h0.1l0.3,1.4h-0.1c-0.5-0.7-1.3-1.1-2-1.1c-0.6,0-1.1,0.2-1.6,0.6
	c-0.6,0.5-0.7,1.2-0.7,1.8c0,1.3,0.9,2.6,2.5,2.6c0.9,0,1.6-0.5,2.2-1.3L234.5,251.1z"/>
<path d="M243.1,246.7h0.3l2.6,5.3c0.1,0.2,0.2,0.3,0.4,0.4v0.1h-1.2v-0.1c0.1,0,0.2-0.1,0.2-0.2c0-0.1,0-0.2-0.1-0.3l-0.6-1.3h-2.9
	l-0.6,1.2c-0.1,0.1-0.1,0.2-0.1,0.3c0,0.1,0,0.2,0.2,0.2v0.1h-1.1v-0.1c0.3-0.1,0.3-0.2,0.4-0.5L243.1,246.7z M243.2,247.7l-1.2,2.5
	h2.4L243.2,247.7z"/>
<path d="M248.7,251.3c0.4,0.6,1.1,1,1.8,1c0.8,0,1.3-0.4,1.3-1.1c0-1.4-3.1-1.3-3.1-3.1c0-0.7,0.6-1.3,1.6-1.3
	c0.7,0,1.1,0.2,1.3,0.3l0.2-0.2h0.1l0.2,1.2h-0.2c-0.4-0.6-1-0.8-1.6-0.8c-0.7,0-1.1,0.4-1.1,0.8c0,1.3,3.1,1.1,3.1,3.1
	c0,0.4-0.3,1.6-1.8,1.6c-0.5,0-0.9-0.1-1.3-0.3l-0.2,0.3H249l-0.4-1.3L248.7,251.3z"/>
<path d="M255.1,251.3c0.4,0.6,1.1,1,1.8,1c0.8,0,1.3-0.4,1.3-1.1c0-1.4-3.1-1.3-3.1-3.1c0-0.7,0.6-1.3,1.6-1.3
	c0.7,0,1.1,0.2,1.3,0.3l0.2-0.2h0.1l0.2,1.2h-0.2c-0.4-0.6-1-0.8-1.6-0.8c-0.7,0-1.1,0.4-1.1,0.8c0,1.3,3.1,1.1,3.1,3.1
	c0,0.4-0.3,1.6-1.8,1.6c-0.5,0-0.9-0.1-1.3-0.3l-0.2,0.3h-0.1l-0.4-1.3L255.1,251.3z"/>
<path d="M261.4,249.8c0-1.7,1.4-3.1,3.2-3.1c2,0,3.1,1.5,3.1,3c0,1.6-1.3,3-3.2,3C262.4,252.8,261.4,251.1,261.4,249.8z
	 M266.4,251.6c0.5-0.4,0.7-1,0.7-1.8c0-1.1-1-2.6-2.6-2.6c-1.1,0-2.5,0.9-2.5,2.4c0,0.7,0.3,1.5,0.9,2c0.5,0.5,1,0.7,1.7,0.7
	C265.3,252.3,266,252,266.4,251.6z"/>
<path d="M275.9,251.1c-0.5,0.8-1.3,1.6-2.7,1.6c-1.8,0-3-1.4-3-3c0-0.9,0.4-1.6,0.9-2.1c0.5-0.4,1.1-0.8,2.1-0.8
	c0.8,0,1.3,0.3,1.5,0.4c0.1-0.1,0.2-0.2,0.3-0.2h0.1l0.3,1.4h-0.1c-0.5-0.7-1.3-1.1-2-1.1c-0.6,0-1.1,0.2-1.6,0.6
	c-0.6,0.5-0.7,1.2-0.7,1.8c0,1.3,0.9,2.6,2.5,2.6c0.9,0,1.6-0.5,2.2-1.3L275.9,251.1z"/>
<path d="M278.3,246.9h1.3v0.1c-0.2,0-0.3,0.2-0.3,0.4v4.7c0,0.2,0.1,0.3,0.3,0.4v0.1h-1.2v-0.1c0.2-0.1,0.3-0.2,0.3-0.4v-4.7
	c0-0.2-0.1-0.3-0.3-0.4V246.9z"/>
<path d="M284.9,246.7h0.3l2.6,5.3c0.1,0.2,0.2,0.3,0.4,0.4v0.1H287v-0.1c0.1,0,0.2-0.1,0.2-0.2c0-0.1,0-0.2-0.1-0.3l-0.6-1.3h-2.9
	l-0.6,1.2c-0.1,0.1-0.1,0.2-0.1,0.3c0,0.1,0,0.2,0.2,0.2v0.1H282v-0.1c0.3-0.1,0.3-0.2,0.4-0.5L284.9,246.7z M285,247.7l-1.2,2.5
	h2.4L285,247.7z"/>
<path d="M289.2,246.9h5.2l0.4,0.8h-0.1c-0.2-0.2-0.5-0.3-0.7-0.3h-1.9v4.6c0,0.2,0.1,0.4,0.3,0.4v0.1h-1.3v-0.1
	c0.2,0,0.3-0.2,0.3-0.3v-4.7h-1.8c-0.4,0-0.7,0.2-0.8,0.4h-0.1L289.2,246.9z"/>
<path d="M297.2,246.9h1.3v0.1c-0.2,0-0.3,0.2-0.3,0.4v4.7c0,0.2,0.1,0.3,0.3,0.4v0.1h-1.2v-0.1c0.2-0.1,0.3-0.2,0.3-0.4v-4.7
	c0-0.2-0.1-0.3-0.3-0.4V246.9z"/>
<path d="M301,249.8c0-1.7,1.4-3.1,3.2-3.1c2,0,3.1,1.5,3.1,3c0,1.6-1.3,3-3.2,3C302.1,252.8,301,251.1,301,249.8z M306,251.6
	c0.5-0.4,0.7-1,0.7-1.8c0-1.1-1-2.6-2.6-2.6c-1.1,0-2.5,0.9-2.5,2.4c0,0.7,0.3,1.5,0.9,2c0.5,0.5,1,0.7,1.7,0.7
	C305,252.3,305.6,252,306,251.6z"/>
<path d="M309.9,246.9h1l4.1,4.4v-3.9c0-0.2-0.1-0.3-0.3-0.4v-0.1h1.2v0.1c-0.2,0-0.3,0.2-0.3,0.4v5.2h-0.2l-4.5-4.9v4.3
	c0,0.3,0.1,0.5,0.4,0.5v0.1H310v-0.1c0.2,0,0.3-0.1,0.3-0.3v-4.7c0-0.2,0-0.4-0.3-0.4V246.9z"/>
<path d="M174.4,181.6c7.4,0,10.1,3.7,10.1,7.8c0,6-5.2,9.1-11.7,9.1h-2.3V198h2.1c5.8,0,9.8-2.7,9.8-8.4c0-4.2-1.7-7.6-7.8-7.6h-5.8
	v23.7h1.4v0.5h-4.7v-0.5h1.4v-23.7h-1.4v-0.5H174.4z"/>
<path d="M203.6,205.8h1.4v0.5h-4.8v-0.5h1.5l-6.4-19.8c-0.5-1.4-0.8-2.3-1.1-2.8l-3.9,11.4h6.1l0.2,0.5h-6.4l-3.1,9
	c-0.1,0.4-0.2,0.7-0.2,0.8c0,0.5,0.4,0.8,1.3,0.8h0.4v0.5H184v-0.5c1.6,0,2.1-0.3,2.9-2.6l7-20.6c-0.1-0.1-0.2-0.2-0.4-0.2
	c-0.4,0-0.7,0.1-1.1,0.3l-0.2-0.4l3.3-1.6L203.6,205.8z"/>
<path d="M220.7,187c0-0.8-0.5-2.5-1.6-3.6c-1.3-1.2-3.5-2.3-5.6-2.3c-2.4,0-5,1.5-5,4.1c0,7.5,18.5,8.4,18.5,22.9
	c0,7.6-6.8,16.6-18,16.6c-7.7,0-14.4-5.3-14.4-13.6s6.5-13.2,12.8-13.2c4.9,0,8.5,3.7,8.5,8.2c0,3.5-2.3,5.7-4.2,5.7
	c-1.2,0-2.1-0.7-2.1-1.8c0-0.9,0.6-1.6,1.4-1.6c1.2,0,1.3,1.3,1.9,1.3c0.7,0,2.3-1.3,2.3-3.7c0-4.5-3.2-7.7-8.1-7.7
	c-6.2,0-11.1,4.7-11.1,12c0,7.9,6.5,13.5,13.8,13.5c9.4,0,15.7-7.5,15.7-14.4c0-14.5-18.3-15-18.3-23.5c0-3.2,2.7-5.4,6-5.4
	c3.6,0,5.4,2,6.4,2c0.8,0,0.9-1.2,0.9-1.6h0.5v5.9H220.7z"/>
<path d="M247.9,205.8h1.4v0.5h-4.8v-0.5h1.5l-6.4-19.8c-0.5-1.4-0.8-2.3-1.1-2.8l-3.9,11.4h6.1l0.2,0.5h-6.4l-3.1,9
	c-0.1,0.4-0.2,0.7-0.2,0.8c0,0.5,0.4,0.8,1.3,0.8h0.4v0.5h-4.8v-0.5c1.6,0,2.1-0.3,2.9-2.6l7-20.6c-0.1-0.1-0.2-0.2-0.4-0.2
	c-0.4,0-0.7,0.1-1.1,0.3l-0.2-0.4l3.3-1.6L247.9,205.8z"/>
<path d="M255.2,205.8l0-23.7h-1.5v-0.5h6.4c9.9,0,14.3,4.3,14.3,12.5c0,6.9-4.2,12.1-13.9,12.1h-6.8v-0.5H255.2z M257,205.8h3.5
	c9.5,0,12.1-5.4,12.1-11.7c0-7.7-3.2-12-12.4-12H257V205.8z"/>
<path d="M278.1,205.8h1.4l0-23.7h-1.5v-0.5h14.7c1.2,0,1.5-0.6,1.6-0.8h0.5v5.3h-0.5c0-3.7-1-4-2.8-4h-10.3v9.6h5.9
	c0.9-0.1,1.1-0.8,1.1-1.4h0.5l0.8,4.9h-0.5c-0.9-3-1.2-3-2.6-3h-5.3v13.6h11c1.6,0,2.6-0.6,2.6-4.2h0.5v5.5h-0.5
	c-0.1-0.3-0.4-0.8-1.7-0.8h-15V205.8z"/>
<path d="M301.2,205.8c1.4,0,1.8-0.4,1.8-3.1v-20c-0.2-0.1-0.3-0.2-0.4-0.2c-0.4,0-0.7,0.1-1.1,0.3l-0.2-0.4l2.8-1.6l15.5,22.3v-17.9
	c0-2.7-0.3-3.1-1.8-3.1v-0.5h4.1v0.5c-1.4,0-1.8,0.4-1.8,3.1v21h-0.6l-14.9-21.4c-0.5-0.6-0.9-1.2-1.2-1.7v19.5
	c0,2.7,0.3,3.1,1.8,3.1v0.5h-4.1V205.8z"/>
<path d="M343.2,205.8h1.4v0.5h-4.8v-0.5h1.5l-6.4-19.8c-0.5-1.4-0.8-2.3-1.1-2.8l-3.9,11.4h6.1l0.2,0.5h-6.4l-3.1,9
	c-0.1,0.4-0.2,0.7-0.2,0.8c0,0.5,0.4,0.8,1.3,0.8h0.4v0.5h-4.8v-0.5c1.6,0,2.1-0.3,2.9-2.6l7-20.6c-0.1-0.1-0.2-0.2-0.4-0.2
	c-0.4,0-0.7,0.1-1.1,0.3l-0.2-0.4l3.3-1.6L343.2,205.8z"/>
</svg>
