<svg width="220" height="69" viewBox="0 0 220 69" fill="none" xmlns="http://www.w3.org/2000/svg">
<g clip-path="url(#clip0_22_713)">
<path d="M14.9926 32.7272C15.4255 28.8311 14.1268 26.8398 10.9233 25.3679C10.9233 30.5627 12.7415 31.5151 14.9926 32.7272Z" fill="white" fill-opacity="0.4"/>
<path d="M14.9926 32.7273C15.4255 36.6234 14.1268 38.6147 10.9233 40.0866C10.9233 34.8918 12.7415 33.9394 14.9926 32.7273Z" fill="white" fill-opacity="0.4"/>
<path d="M5.46887 27.7922C11.4429 28.3117 13.0013 35.3247 6.33467 36.8831C10.3174 34.6321 9.7113 30.4762 5.46887 27.7922Z" fill="white" fill-opacity="0.4"/>
<path d="M1.13977 29.6103C3.65059 25.7142 8.93198 29.264 7.46012 33.6796C6.85406 30.5627 4.42981 28.658 1.13977 29.6103Z" fill="white" fill-opacity="0.4"/>
<path d="M0.533765 33.1603C-1.19784 30.3031 2.87143 28.7447 4.68961 30.5629C2.17879 30.3031 0.620345 31.8616 0.533765 33.1603Z" fill="white" fill-opacity="0.4"/>
<path d="M2.35194 31.342C-0.76494 33.3334 1.39956 35.8442 5.38225 35.2381C2.78484 34.8052 1.48614 33.5931 2.35194 31.342Z" fill="white" fill-opacity="0.4"/>
<path d="M3.65069 30.9092C1.05328 32.6408 3.30436 35.1516 6.68099 34.5455C7.20047 33.0737 5.29571 30.6494 3.65069 30.9092Z" fill="white" fill-opacity="0.4"/>
<path d="M8.06626 31.8616C9.71128 35.4979 4.68964 38.8745 1.57275 35.1516C5.12254 36.9698 8.326 35.065 8.06626 31.8616Z" fill="white" fill-opacity="0.4"/>
<path d="M184.776 32.7272C184.343 28.8311 185.642 26.8398 188.846 25.3679C188.932 30.5627 187.114 31.5151 184.776 32.7272Z" fill="white" fill-opacity="0.4"/>
<path d="M184.776 32.7273C184.343 36.6234 185.642 38.6147 188.846 40.0866C188.932 34.8918 187.114 33.9394 184.776 32.7273Z" fill="white" fill-opacity="0.4"/>
<path d="M194.387 27.7922C188.413 28.3117 186.854 35.3247 193.521 36.8831C189.452 34.6321 190.144 30.4762 194.387 27.7922Z" fill="white" fill-opacity="0.4"/>
<path d="M198.716 29.6103C196.205 25.7142 190.923 29.264 192.395 33.6796C192.915 30.5627 195.426 28.658 198.716 29.6103Z" fill="white" fill-opacity="0.4"/>
<path d="M199.322 33.16C201.053 30.3029 196.984 28.7445 195.166 30.5626C197.677 30.3029 199.235 31.8613 199.322 33.16Z" fill="white" fill-opacity="0.4"/>
<path d="M197.504 31.342C200.62 33.3334 198.456 35.8442 194.473 35.2381C196.984 34.8052 198.369 33.5931 197.504 31.342Z" fill="white" fill-opacity="0.4"/>
<path d="M196.118 30.9089C198.716 32.6405 196.465 35.1514 193.088 34.5453C192.655 33.0734 194.473 30.6492 196.118 30.9089Z" fill="white" fill-opacity="0.4"/>
<path d="M191.703 31.8613C190.058 35.4977 195.079 38.8743 198.196 35.1514C194.646 36.9695 191.443 35.0648 191.703 31.8613Z" fill="white" fill-opacity="0.4"/>
<path d="M184.949 32.554H72.655V32.9003H184.949V32.554Z" fill="white" fill-opacity="0.4"/>
<path d="M50.7503 32.5542H14.9927V32.9005H50.7503V32.5542Z" fill="white" fill-opacity="0.4"/>
<path d="M30.3174 47.0996C29.7979 47.9654 28.9321 48.8312 27.3736 48.8312C25.4689 48.8312 24.1702 47.3594 24.1702 45.6278C24.1702 44.6754 24.6031 43.8962 25.1226 43.3767C25.642 42.9438 26.3347 42.4243 27.3736 42.4243C28.2394 42.4243 28.7589 42.6841 29.0187 42.8572C29.1052 42.7706 29.1918 42.6841 29.2784 42.5975H29.4516L29.7979 44.0693H29.6247C29.1052 43.2901 28.2394 42.9438 27.4602 42.9438C26.7676 42.9438 26.2481 43.117 25.7286 43.6364C25.1225 44.2425 24.9494 44.9351 24.9494 45.5412C24.9494 47.0131 25.9018 48.3118 27.6334 48.3118C28.5858 48.3118 29.365 47.7923 29.971 46.9265L30.3174 47.0996Z" fill="white" fill-opacity="0.4"/>
<path d="M38.196 42.5974H39.5813V42.7706C39.3216 42.7706 39.235 42.9437 39.235 43.1169V48.1385C39.235 48.3117 39.3216 48.4849 39.5813 48.5714V48.658H38.196V48.5714C38.4558 48.5714 38.5424 48.3983 38.5424 48.2251V45.5411H33.867V48.2251C33.867 48.3983 33.9536 48.5714 34.2134 48.5714V48.658H32.9147V48.5714C33.0878 48.4849 33.261 48.3983 33.261 48.2251V43.2035C33.261 42.9437 33.1744 42.8571 32.9147 42.7706V42.5974H34.2134V42.7706C33.9536 42.8571 33.867 42.9437 33.867 43.2035V45.1082H38.5424V43.2035C38.5424 43.0303 38.4558 42.8571 38.196 42.7706V42.5974Z" fill="white" fill-opacity="0.4"/>
<path d="M45.2091 42.4243H45.4688L48.326 48.1386C48.4125 48.3983 48.5857 48.4849 48.7589 48.5715V48.6581H47.4602V48.5715C47.6333 48.5715 47.6333 48.4849 47.6333 48.3983C47.6333 48.3118 47.6333 48.2252 47.5467 48.1386L46.8541 46.7533H43.7372L43.1311 48.052C43.0446 48.2252 43.0446 48.3118 43.0446 48.3983C43.0446 48.4849 43.1312 48.5715 43.2177 48.6581V48.7447H42.0056V48.6581C42.2654 48.5715 42.3519 48.3983 42.5251 48.1386L45.2091 42.4243ZM45.2956 43.4633L43.9969 46.1473H46.5943L45.2956 43.4633Z" fill="white" fill-opacity="0.4"/>
<path d="M56.8108 42.5974H58.1961V42.7706C57.8498 42.7706 57.8497 43.0303 57.8497 43.2901L58.1961 48.052C58.1961 48.4849 58.2826 48.5714 58.5424 48.5714V48.658H57.1571V48.5714C57.4169 48.4849 57.5034 48.3117 57.5034 47.9654L57.1571 43.2035L54.8194 47.8788H54.6463L52.222 43.2901L51.8757 47.9654C51.8757 48.3983 51.9623 48.5714 52.1355 48.5714V48.658H50.9233V48.5714C51.0965 48.4849 51.2697 48.3983 51.2697 48.1385L51.616 43.3766C51.616 43.0303 51.616 42.7706 51.1831 42.7706V42.5974H52.5684L54.6463 46.6667L56.8108 42.5974Z" fill="white" fill-opacity="0.4"/>
<path d="M61.313 42.5974H63.7372C64.6896 42.5974 65.642 42.8572 65.642 43.9827C65.642 44.8485 65.0359 45.1948 64.2567 45.368C65.2957 45.4546 66.0749 46.0606 66.0749 47.013C66.0749 48.1385 65.2091 48.7446 64.1701 48.7446H61.3996V48.658C61.5727 48.658 61.6593 48.4849 61.6593 48.3117V43.2035C61.6593 43.0303 61.5727 42.8571 61.313 42.7706V42.5974ZM62.352 48.1385H63.8238C65.2957 48.1385 65.3823 47.2727 65.3823 46.9264C65.3823 45.5411 63.7372 45.5411 63.3043 45.5411H62.6983V45.1082H63.3909C64.1701 45.1082 64.9494 44.9351 64.9494 43.9827C64.9494 43.2035 64.2567 43.0303 63.6507 43.0303H62.4385V48.1385H62.352Z" fill="white" fill-opacity="0.4"/>
<path d="M68.7589 42.5974H73.0879L73.4342 43.5498H73.2611C73.0879 43.3766 72.8282 43.2035 72.3087 43.2035H69.7979V45.1082H72.7416C72.9148 45.1082 73.0879 45.0217 73.1745 44.7619H73.2611V45.8875H73.0879C73.0013 45.7143 72.9148 45.6277 72.655 45.6277H69.7113V48.2251H72.3087C72.8282 48.2251 73.0879 48.052 73.2611 47.7922H73.4342L73.0879 48.7446H68.7589V48.658C68.9321 48.5714 69.1052 48.4849 69.1052 48.3117V43.2035C69.1052 43.0303 69.0187 42.8571 68.7589 42.7706V42.5974Z" fill="white" fill-opacity="0.4"/>
<path d="M76.3779 42.5974H78.9753C79.7546 42.5974 80.7935 43.0303 80.7935 44.1559C80.7935 45.1948 80.0143 45.6277 78.8887 45.7143C79.9277 46.3204 80.4472 46.9264 81.0532 47.9654C81.2264 48.3117 81.3996 48.4849 81.5727 48.5714V48.658H80.1009V48.5714C80.274 48.4849 80.3606 48.3983 80.3606 48.3117C80.3606 47.7056 79.1485 46.0606 77.7632 45.6277V45.2814H78.4558C79.0619 45.2814 79.4948 45.1948 79.7545 44.9351C79.9277 44.7619 80.0143 44.5022 80.0143 44.1559C80.0143 43.4632 79.4082 43.1169 78.629 43.1169H77.4169V48.052C77.4169 48.3117 77.5035 48.4849 77.7632 48.5714V48.658H76.4645V48.5714C76.7242 48.4849 76.8108 48.3117 76.8108 48.1385V43.2035C76.8108 42.9437 76.7242 42.7706 76.4645 42.684V42.5974H76.3779Z" fill="white" fill-opacity="0.4"/>
<path d="M87.7198 45.7144C87.7198 43.8962 89.1917 42.4243 91.1831 42.4243C93.261 42.4243 94.5597 44.0693 94.5597 45.6278C94.5597 47.3594 93.1744 48.9178 91.0965 48.9178C88.8454 48.9178 87.7198 47.0996 87.7198 45.7144ZM93.1744 47.6191C93.6939 47.1862 93.9536 46.5802 93.9536 45.7144C93.9536 44.5022 92.9147 42.8572 91.0965 42.8572C89.8844 42.8572 88.4125 43.8096 88.4125 45.4546C88.4125 46.2338 88.7588 47.0131 89.3649 47.6191C89.8844 48.1386 90.4904 48.3983 91.2696 48.3983C92.0489 48.3983 92.7415 48.052 93.1744 47.6191Z" fill="white" fill-opacity="0.4"/>
<path d="M97.3302 42.5974H101.4L101.746 43.4632H101.573C101.399 43.2035 101.14 43.1169 100.793 43.1169H98.2826V45.1082H100.967C101.14 45.1082 101.313 45.0217 101.4 44.8485H101.486V45.974H101.4C101.4 45.8009 101.14 45.6277 100.967 45.6277H98.2826V48.052C98.2826 48.3117 98.3692 48.4849 98.6289 48.5714V48.658H97.3302V48.5714C97.5034 48.4849 97.59 48.3983 97.59 48.2251V43.1169C97.59 42.9437 97.5034 42.7706 97.2437 42.7706L97.3302 42.5974Z" fill="white" fill-opacity="0.4"/>
<path d="M114.3 47.0996C113.781 47.9654 112.915 48.8312 111.356 48.8312C109.452 48.8312 108.153 47.3594 108.153 45.6278C108.153 44.6754 108.586 43.8962 109.105 43.3767C109.625 42.9438 110.317 42.4243 111.356 42.4243C112.222 42.4243 112.742 42.6841 113.001 42.8572C113.088 42.7706 113.174 42.6841 113.261 42.5975H113.434L113.781 44.0693H113.607C113.088 43.2901 112.222 42.9438 111.443 42.9438C110.75 42.9438 110.231 43.117 109.711 43.6364C109.105 44.2425 108.932 44.9351 108.932 45.5412C108.932 47.0131 109.884 48.3118 111.616 48.3118C112.568 48.3118 113.348 47.7923 113.954 46.9265L114.3 47.0996Z" fill="white" fill-opacity="0.4"/>
<path d="M116.638 45.7144C116.638 43.8962 118.11 42.4243 120.101 42.4243C122.179 42.4243 123.478 44.0693 123.478 45.6278C123.478 47.3594 122.092 48.9178 120.014 48.9178C117.763 48.9178 116.638 47.0996 116.638 45.7144ZM122.092 47.6191C122.612 47.1862 122.871 46.5802 122.871 45.7144C122.871 44.5022 121.833 42.8572 120.014 42.8572C118.802 42.8572 117.33 43.8096 117.33 45.4546C117.33 46.2338 117.677 47.0131 118.283 47.6191C118.802 48.1386 119.408 48.3983 120.187 48.3983C120.967 48.3983 121.659 48.052 122.092 47.6191Z" fill="white" fill-opacity="0.4"/>
<path d="M131.789 42.5974H133.174V42.7706C132.828 42.7706 132.828 43.0303 132.828 43.2901L133.174 48.052C133.174 48.4849 133.261 48.5714 133.521 48.5714V48.658H132.136V48.5714C132.395 48.4849 132.482 48.3117 132.482 47.9654L132.136 43.2035L129.798 47.8788H129.625L127.2 43.2901L126.854 47.9654C126.854 48.3983 126.941 48.5714 127.114 48.5714V48.658H125.902V48.5714C126.075 48.4849 126.248 48.3983 126.248 48.1385L126.594 43.3766C126.594 43.0303 126.594 42.7706 126.161 42.7706V42.5974H127.547L129.625 46.6667L131.789 42.5974Z" fill="white" fill-opacity="0.4"/>
<path d="M141.833 42.5974H143.218V42.7706C142.871 42.7706 142.871 43.0303 142.871 43.2901L143.218 48.052C143.218 48.4849 143.304 48.5714 143.564 48.5714V48.658H142.179V48.5714C142.439 48.4849 142.525 48.3117 142.525 47.9654L142.179 43.2035L139.841 47.8788H139.668L137.244 43.2901L136.897 47.9654C136.897 48.3983 136.984 48.5714 137.157 48.5714V48.658H135.945V48.5714C136.118 48.4849 136.291 48.3983 136.291 48.1385L136.638 43.3766C136.638 43.0303 136.638 42.7706 136.205 42.7706V42.5974H137.59L139.668 46.6667L141.833 42.5974Z" fill="white" fill-opacity="0.4"/>
<path d="M146.248 42.5974H150.577L150.923 43.5498H150.75C150.577 43.3766 150.317 43.2035 149.798 43.2035H147.287V45.1082H150.231C150.404 45.1082 150.577 45.0217 150.664 44.7619H150.75V45.8875H150.664C150.577 45.7143 150.49 45.6277 150.231 45.6277H147.287V48.2251H149.884C150.404 48.2251 150.664 48.052 150.837 47.7922H151.01L150.664 48.7446H146.248V48.658C146.421 48.5714 146.594 48.4849 146.594 48.3117V43.2035C146.594 43.0303 146.508 42.8571 146.248 42.7706V42.5974Z" fill="white" fill-opacity="0.4"/>
<path d="M153.954 42.5974H156.551C157.33 42.5974 158.369 43.0303 158.369 44.1559C158.369 45.1948 157.59 45.6277 156.464 45.7143C157.503 46.3204 158.023 46.9264 158.629 47.9654C158.802 48.3117 158.975 48.4849 159.148 48.5714V48.658H157.677V48.5714C157.85 48.4849 157.936 48.3983 157.936 48.3117C157.936 47.7056 156.724 46.0606 155.339 45.6277V45.2814H156.032C156.638 45.2814 157.07 45.1948 157.33 44.9351C157.503 44.7619 157.59 44.5022 157.59 44.1559C157.59 43.4632 156.984 43.1169 156.205 43.1169H154.993V48.052C154.993 48.3117 155.079 48.4849 155.339 48.5714V48.658H154.04V48.5714C154.3 48.4849 154.387 48.3117 154.387 48.1385V43.2035C154.387 42.9437 154.3 42.7706 154.04 42.684V42.5974H153.954Z" fill="white" fill-opacity="0.4"/>
<path d="M167.547 47.0996C167.027 47.9654 166.161 48.8312 164.603 48.8312C162.698 48.8312 161.4 47.3594 161.4 45.6278C161.4 44.6754 161.832 43.8962 162.352 43.3767C162.871 42.9438 163.564 42.4243 164.603 42.4243C165.469 42.4243 165.988 42.6841 166.248 42.8572C166.335 42.7706 166.421 42.6841 166.508 42.5975H166.681L167.027 44.0693H166.854C166.335 43.2901 165.469 42.9438 164.69 42.9438C163.997 42.9438 163.477 43.117 162.958 43.6364C162.352 44.2425 162.179 44.9351 162.179 45.5412C162.179 47.0131 163.131 48.3118 164.863 48.3118C165.815 48.3118 166.594 47.7923 167.2 46.9265L167.547 47.0996Z" fill="white" fill-opacity="0.4"/>
<path d="M170.058 42.5974H174.387L174.733 43.5498H174.56C174.387 43.3766 174.127 43.2035 173.607 43.2035H171.097V45.1082H174.04C174.213 45.1082 174.387 45.0217 174.473 44.7619H174.56V45.8875H174.473C174.387 45.7143 174.3 45.6277 174.04 45.6277H171.097V48.2251H173.694C174.213 48.2251 174.473 48.052 174.646 47.7922H174.82L174.473 48.7446H170.058V48.658C170.231 48.5714 170.404 48.4849 170.404 48.3117V43.2035C170.404 43.0303 170.317 42.8571 170.058 42.7706V42.5974Z" fill="white" fill-opacity="0.4"/>
<path d="M49.7113 60.5194C49.7113 61.5583 49.0187 62.251 47.9797 62.251C46.5944 62.251 46.075 61.212 46.075 60.5194C46.075 59.7401 46.5078 59.0475 47.4602 58.8743C46.9407 58.7012 46.5944 58.4414 46.5944 57.922C46.5944 57.4025 47.0273 57.0562 47.5468 57.0562C47.8066 57.0562 47.9797 57.1427 48.1529 57.2293C48.2394 57.1427 48.326 57.1427 48.326 57.0562H48.4126L48.4992 57.922H48.4126C48.2395 57.6622 47.9797 57.4025 47.6334 57.4025C47.2871 57.4025 47.0273 57.5756 47.0273 58.0085C47.0273 58.4414 47.4602 58.7878 48.1529 58.7878V59.1341C47.2871 59.1341 46.5944 59.6536 46.5944 60.5194C46.5944 61.212 47.1139 61.8181 48.0663 61.8181C49.0187 61.8181 49.2784 61.0388 49.2784 60.5194H47.8931C47.72 60.5194 47.6334 60.6059 47.5468 60.7791H47.4602L47.5468 60.173H50.8369C50.9234 60.173 51.0966 60.0865 51.0966 59.9133H51.1832V60.6059H49.7113V60.5194Z" fill="white" fill-opacity="0.4"/>
<path d="M61.4862 60.8658C61.0533 61.5584 60.3606 62.251 59.1485 62.251C57.5901 62.251 56.6377 61.0389 56.6377 59.6536C56.6377 58.8744 56.984 58.2684 57.4169 57.8355C57.8498 57.4891 58.3693 57.1428 59.2351 57.1428C59.9277 57.1428 60.3606 57.4026 60.5338 57.4891C60.6204 57.4026 60.707 57.316 60.7935 57.316H60.8801L61.1399 58.5281H60.9667C60.5338 57.922 59.8412 57.5757 59.2351 57.5757C58.7156 57.5757 58.2827 57.7489 57.8498 58.0952C57.3303 58.5281 57.2438 59.1342 57.2438 59.6536C57.2438 60.7792 58.023 61.9047 59.4083 61.9047C60.1875 61.9047 60.7935 61.4718 61.313 60.7792L61.4862 60.8658Z" fill="white" fill-opacity="0.4"/>
<path d="M63.6506 57.2295H64.7762V57.3161C64.603 57.3161 64.5164 57.4892 64.5164 57.6624V61.7317C64.5164 61.9048 64.603 61.9914 64.7762 62.078V62.1646H63.7372V62.078C63.9104 61.9914 63.9969 61.9048 63.9969 61.7317V57.6624C63.9969 57.4892 63.9104 57.4027 63.7372 57.3161V57.2295H63.6506Z" fill="white" fill-opacity="0.4"/>
<path d="M70.8368 57.2295H71.8758V57.3161C71.616 57.4027 71.5295 57.5758 71.4429 57.8356L69.5381 62.2511H69.2784L67.287 57.9221C67.1139 57.5758 67.0273 57.3161 66.8541 57.3161V57.2295H67.9797V57.3161C67.8931 57.3161 67.8065 57.4027 67.8065 57.5758C67.8065 57.6624 67.8065 57.6624 67.8065 57.749L69.5381 61.4719L71.0965 57.8356C71.0965 57.749 71.1831 57.6624 71.1831 57.5758C71.1831 57.4892 71.0966 57.4027 71.01 57.3161V57.2295H70.8368Z" fill="white" fill-opacity="0.4"/>
<path d="M73.8671 57.2295H74.9926V57.3161C74.8194 57.3161 74.7329 57.4892 74.7329 57.6624V61.7317C74.7329 61.9048 74.8194 61.9914 74.9926 62.078V62.1646H73.9537V62.078C74.1268 61.9914 74.2134 61.9048 74.2134 61.7317V57.6624C74.2134 57.4892 74.1268 57.4027 73.9537 57.3161V57.2295H73.8671Z" fill="white" fill-opacity="0.4"/>
<path d="M82.1788 60.8658C81.7459 61.5584 81.0533 62.251 79.8412 62.251C78.2827 62.251 77.2438 61.0389 77.2438 59.6536C77.2438 58.8744 77.5901 58.2684 78.023 57.8355C78.4559 57.4891 78.9754 57.1428 79.8412 57.1428C80.5338 57.1428 80.9667 57.4026 81.1399 57.4891C81.2265 57.4026 81.313 57.316 81.3996 57.316H81.4862L81.7459 58.5281H81.6594C81.2265 57.922 80.5338 57.5757 79.9277 57.5757C79.4083 57.5757 78.9754 57.7489 78.5425 58.0952C78.023 58.5281 77.9364 59.1342 77.9364 59.6536C77.9364 60.7792 78.7156 61.9047 80.1009 61.9047C80.8801 61.9047 81.4862 61.4718 82.0057 60.7792L82.1788 60.8658Z" fill="white" fill-opacity="0.4"/>
<path d="M89.6247 57.0562H89.8845L92.1355 61.6449C92.2221 61.8181 92.3087 61.9046 92.4819 61.9912V62.0778H91.4429V61.9912C91.5295 61.9912 91.6161 61.9046 91.6161 61.8181C91.6161 61.7315 91.6161 61.6449 91.5295 61.5583L91.01 60.4328H88.4992L87.9797 61.4717C87.8931 61.5583 87.8931 61.6449 87.8931 61.7315C87.8931 61.8181 87.8931 61.9046 88.0663 61.9046V61.9912H87.1139V61.9046C87.3736 61.8181 87.3736 61.7315 87.4602 61.4717L89.6247 57.0562ZM89.7113 57.922L88.6723 60.0865H90.7503L89.7113 57.922Z" fill="white" fill-opacity="0.4"/>
<path d="M94.4732 61.0389C94.8195 61.5584 95.4256 61.9047 96.0316 61.9047C96.7243 61.9047 97.1572 61.5584 97.1572 60.9523C97.1572 59.7402 94.4732 59.8268 94.4732 58.2684C94.4732 57.6623 94.9927 57.1428 95.8585 57.1428C96.4645 57.1428 96.8108 57.316 96.984 57.4026L97.1572 57.2294H97.2437L97.4169 58.2684H97.2437C96.8974 57.7489 96.3779 57.5757 95.8585 57.5757C95.2524 57.5757 94.9061 57.922 94.9061 58.2684C94.9061 59.3939 97.5901 59.2207 97.5901 60.9523C97.5901 61.2987 97.3303 62.3376 96.0316 62.3376C95.5987 62.3376 95.2524 62.251 94.9061 62.0779L94.7329 62.3376L94.3866 61.2121L94.4732 61.0389Z" fill="white" fill-opacity="0.4"/>
<path d="M100.014 61.0389C100.361 61.5584 100.967 61.9047 101.573 61.9047C102.265 61.9047 102.698 61.5584 102.698 60.9523C102.698 59.7402 100.014 59.8268 100.014 58.2684C100.014 57.6623 100.534 57.1428 101.4 57.1428C102.006 57.1428 102.352 57.316 102.525 57.4026L102.698 57.2294H102.785L102.958 58.2684H102.785C102.438 57.7489 101.919 57.5757 101.4 57.5757C100.793 57.5757 100.447 57.922 100.447 58.2684C100.447 59.3939 103.131 59.2207 103.131 60.9523C103.131 61.2987 102.871 62.3376 101.573 62.3376C101.14 62.3376 100.793 62.251 100.447 62.0779L100.274 62.3376H100.187L99.8411 61.2121L100.014 61.0389Z" fill="white" fill-opacity="0.4"/>
<path d="M105.469 59.7401C105.469 58.2683 106.681 57.0562 108.239 57.0562C109.971 57.0562 110.923 58.3549 110.923 59.6536C110.923 61.0388 109.798 62.251 108.153 62.251C106.335 62.3375 105.469 60.8657 105.469 59.7401ZM109.798 61.2986C110.231 60.9523 110.404 60.4328 110.404 59.7401C110.404 58.7878 109.538 57.4891 108.153 57.4891C107.2 57.4891 105.988 58.2683 105.988 59.567C105.988 60.173 106.248 60.8657 106.768 61.2986C107.2 61.7315 107.633 61.9046 108.239 61.9046C108.846 61.9046 109.452 61.6449 109.798 61.2986Z" fill="white" fill-opacity="0.4"/>
<path d="M118.023 60.8658C117.59 61.5584 116.897 62.251 115.685 62.251C114.127 62.251 113.088 61.0389 113.088 59.6536C113.088 58.8744 113.434 58.2684 113.867 57.8355C114.3 57.4891 114.819 57.1428 115.685 57.1428C116.378 57.1428 116.811 57.4026 116.984 57.4891C117.071 57.4026 117.157 57.316 117.244 57.316H117.33L117.59 58.5281H117.503C117.071 57.922 116.378 57.5757 115.772 57.5757C115.252 57.5757 114.819 57.7489 114.387 58.0952C113.867 58.5281 113.781 59.1342 113.781 59.6536C113.781 60.7792 114.56 61.9047 115.945 61.9047C116.724 61.9047 117.33 61.4718 117.85 60.7792L118.023 60.8658Z" fill="white" fill-opacity="0.4"/>
<path d="M120.101 57.2295H121.226V57.3161C121.053 57.3161 120.967 57.4892 120.967 57.6624V61.7317C120.967 61.9048 121.053 61.9914 121.226 62.078V62.1646H120.187V62.078C120.361 61.9914 120.447 61.9048 120.447 61.7317V57.6624C120.447 57.4892 120.361 57.4027 120.187 57.3161V57.2295H120.101Z" fill="white" fill-opacity="0.4"/>
<path d="M125.815 57.0562H126.075L128.326 61.6449C128.413 61.8181 128.499 61.9046 128.672 61.9912V62.0778H127.633V61.9912C127.72 61.9912 127.806 61.9046 127.806 61.8181C127.806 61.7315 127.806 61.6449 127.72 61.5583L127.2 60.4328H124.69L124.17 61.4717C124.084 61.5583 124.084 61.6449 124.084 61.7315C124.084 61.8181 124.084 61.9046 124.257 61.9046V61.9912H123.304V61.9046C123.564 61.8181 123.564 61.7315 123.651 61.4717L125.815 57.0562ZM125.902 57.922L124.863 60.0865H126.941L125.902 57.922Z" fill="white" fill-opacity="0.4"/>
<path d="M129.538 57.2295H134.04L134.387 57.9221H134.3C134.127 57.749 133.867 57.6624 133.694 57.6624H132.049V61.6451C132.049 61.8182 132.136 61.9914 132.309 61.9914V62.078H131.183V61.9914C131.356 61.9914 131.443 61.8182 131.443 61.7317V57.6624H129.884C129.538 57.6624 129.278 57.8356 129.192 58.0087H129.105L129.538 57.2295Z" fill="white" fill-opacity="0.4"/>
<path d="M136.464 57.2295H137.59V57.3161C137.417 57.3161 137.33 57.4892 137.33 57.6624V61.7317C137.33 61.9048 137.417 61.9914 137.59 62.078V62.1646H136.551V62.078C136.724 61.9914 136.811 61.9048 136.811 61.7317V57.6624C136.811 57.4892 136.724 57.4027 136.551 57.3161V57.2295H136.464Z" fill="white" fill-opacity="0.4"/>
<path d="M139.755 59.7401C139.755 58.2683 140.967 57.0562 142.525 57.0562C144.257 57.0562 145.209 58.3549 145.209 59.6536C145.209 61.0388 144.084 62.251 142.439 62.251C140.707 62.3375 139.755 60.8657 139.755 59.7401ZM144.084 61.2986C144.516 60.9523 144.69 60.4328 144.69 59.7401C144.69 58.7878 143.824 57.4891 142.439 57.4891C141.486 57.4891 140.274 58.2683 140.274 59.567C140.274 60.173 140.534 60.8657 141.053 61.2986C141.486 61.7315 141.919 61.9046 142.525 61.9046C143.218 61.9046 143.737 61.6449 144.084 61.2986Z" fill="white" fill-opacity="0.4"/>
<path d="M147.46 57.2295H148.326L151.876 61.039V57.6624C151.876 57.4892 151.789 57.4027 151.616 57.3161V57.2295H152.655V57.3161C152.482 57.3161 152.395 57.4892 152.395 57.6624V62.1646H152.222L148.326 57.9221V61.6451C148.326 61.9048 148.413 62.078 148.672 62.078V62.1646H147.547V62.078C147.72 62.078 147.807 61.9914 147.807 61.8182V57.749C147.807 57.5758 147.807 57.4027 147.547 57.4027V57.2295H147.46Z" fill="white" fill-opacity="0.4"/>
<path d="M30.1441 0.692542C36.551 0.692542 38.8887 3.896 38.8887 7.44578C38.8887 12.6406 34.3865 15.3246 28.7588 15.3246H26.7675V14.8917H28.5857C33.6073 14.8917 37.0705 12.554 37.0705 7.61895C37.0705 3.98259 35.5987 1.03886 30.3173 1.03886H25.2956V21.5583H26.5077V21.9912H22.4385V21.5583H23.6506V1.03886H22.4385V0.605957H30.1441V0.692542Z" fill="white" fill-opacity="0.4"/>
<path d="M55.4255 21.6451H56.6376V22.078H52.4818V21.6451H53.7805L48.2394 4.50222C47.8065 3.2901 47.5467 2.51088 47.287 2.07798L43.9104 11.9481H49.1917L49.3649 12.381H43.8238L41.1398 20.1732C41.0532 20.5195 40.9666 20.7793 40.9666 20.8659C40.9666 21.2988 41.313 21.5585 42.0922 21.5585H42.4385V21.9914H38.4558V21.5585C39.8411 21.5585 40.274 21.2988 40.9666 19.3074L47.0272 1.47192C46.9407 1.38534 46.8541 1.29876 46.6809 1.29876C46.3346 1.29876 46.0749 1.38535 45.7285 1.55851L45.5554 1.21218L48.4125 -0.173096L55.4255 21.6451Z" fill="white" fill-opacity="0.4"/>
<path d="M70.2307 5.36794C70.2307 4.6753 69.7978 3.20343 68.8454 2.25105C67.7199 1.21209 65.8151 0.25972 63.9969 0.25972C61.919 0.25972 59.6679 1.55841 59.6679 3.8095C59.6679 10.303 75.6852 11.0822 75.6852 23.6363C75.6852 30.2164 69.7978 38.0086 60.1008 38.0086C53.4342 38.0086 47.6333 33.4199 47.6333 26.2337C47.6333 19.0476 53.261 14.8052 58.7155 14.8052C62.958 14.8052 66.0748 18.0086 66.0748 21.9047C66.0748 24.935 64.0835 26.8398 62.4385 26.8398C61.3995 26.8398 60.6203 26.2337 60.6203 25.2814C60.6203 24.5021 61.1398 23.8961 61.8324 23.8961C62.8714 23.8961 62.958 25.0216 63.4774 25.0216C64.0835 25.0216 65.4688 23.8961 65.4688 21.8182C65.4688 17.9221 62.6982 15.1515 58.4558 15.1515C53.0878 15.1515 48.8454 19.2208 48.8454 25.5411C48.8454 32.3809 54.4731 37.2294 60.7935 37.2294C68.932 37.2294 74.3865 30.7359 74.3865 24.7619C74.3865 12.2078 58.5424 11.7749 58.5424 4.41555C58.5424 1.64499 60.88 -0.259766 63.7372 -0.259766C66.8541 -0.259766 68.4125 1.47184 69.2783 1.47184C69.971 1.47184 70.0575 0.43287 70.0575 0.0865494H70.4904V5.19478H70.2307V5.36794Z" fill="white" fill-opacity="0.4"/>
<path d="M93.7805 21.6451H94.9927V22.078H90.8368V21.6451H92.1355L86.5944 4.50222C86.1615 3.2901 85.9018 2.51088 85.642 2.07798L82.2654 11.9481H87.5468L87.7199 12.381H82.1788L79.4948 20.1732C79.4082 20.5195 79.3217 20.7793 79.3217 20.8659C79.3217 21.2988 79.668 21.5585 80.4472 21.5585H80.7935V21.9914H76.6377V21.5585C78.023 21.5585 78.4559 21.2988 79.1485 19.3074L85.2091 1.47192C85.1225 1.38534 85.036 1.29876 84.8628 1.29876C84.5165 1.29876 84.2567 1.38535 83.9104 1.55851L83.7373 1.21218L86.5944 -0.173096L93.7805 21.6451Z" fill="white" fill-opacity="0.4"/>
<path d="M100.101 21.645V1.12553H98.8021V0.692627H104.343C112.915 0.692627 116.724 4.41557 116.724 11.5151C116.724 17.4892 113.088 21.9913 104.69 21.9913H98.8021V21.5584H100.101V21.645ZM101.659 21.645H104.69C112.915 21.645 115.166 16.9697 115.166 11.5151C115.166 4.84847 112.395 1.12553 104.43 1.12553H101.659V21.645Z" fill="white" fill-opacity="0.4"/>
<path d="M119.928 21.645H121.14V1.12554H119.841V0.692643H132.568C133.607 0.692643 133.867 0.17316 133.954 0H134.387V4.58875H133.954C133.954 1.38528 133.088 1.12554 131.529 1.12554H122.612V9.43722H127.72C128.499 9.35064 128.672 8.74459 128.672 8.22511H129.105L129.798 12.4675H129.365C128.586 9.87012 128.326 9.87012 127.114 9.87012H122.525V21.645H132.049C133.434 21.645 134.3 21.1255 134.3 18.0087H134.733V22.7706H134.3C134.213 22.5108 133.954 22.0779 132.828 22.0779H119.841V21.645H119.928Z" fill="white" fill-opacity="0.4"/>
<path d="M139.928 21.645C141.14 21.645 141.486 21.2987 141.486 18.961V1.64502C141.313 1.55844 141.226 1.47186 141.14 1.47186C140.793 1.47186 140.534 1.55844 140.187 1.7316L140.014 1.38527L142.438 0L155.858 19.3074V3.80952C155.858 1.47186 155.599 1.12554 154.3 1.12554V0.692643H157.85V1.12554C156.638 1.12554 156.291 1.47186 156.291 3.80952V21.9913H155.772L142.871 3.4632C142.438 2.94372 142.092 2.42425 141.832 1.99134V18.8745C141.832 21.2121 142.092 21.5584 143.391 21.5584V21.9913H139.841V21.645H139.928Z" fill="white" fill-opacity="0.4"/>
<path d="M176.291 21.6451H177.503V22.078H173.348V21.6451H174.646L169.105 4.50222C168.672 3.2901 168.413 2.51088 168.153 2.07798L164.776 11.9481H170.058L170.231 12.381H164.69L162.006 20.1732C161.919 20.5195 161.832 20.7793 161.832 20.8659C161.832 21.2988 162.179 21.5585 162.958 21.5585H163.304V21.9914H159.148V21.5585C160.534 21.5585 160.967 21.2988 161.659 19.3074L167.72 1.47192C167.633 1.38534 167.547 1.29876 167.374 1.29876C167.027 1.29876 166.767 1.38535 166.421 1.55851L166.248 1.21218L169.105 -0.173096L176.291 21.6451Z" fill="white" fill-opacity="0.4"/>
</g>
<defs>
<clipPath id="clip0_22_713">
<rect width="200" height="62.3377" fill="white" transform="translate(0.0142822)"/>
</clipPath>
</defs>
</svg>
