<svg style="display: none;" xmlns="http://www.w3.org/2000/svg" xmlns:xlink="http://www.w3.org/1999/xlink"><symbol id="nc-icon-sign" viewBox="0 0 48 48"><title>sign</title><g ><line data-color="color-2" fill="none" stroke="currentColor" stroke-linecap="square" stroke-miterlimit="10" x1="6" y1="44" x2="42" y2="44"/><path fill="none" stroke-linecap="square" stroke-miterlimit="10" d="M26,24l-8-8L30,4&#10;&#9;c2.2-2.2,5.8-2.2,8,0l0,0c2.2,2.2,2.2,5.8,0,8L26,24z"/><path fill="none" stroke-linecap="square" stroke-miterlimit="10" d="M20,18L8,30&#10;&#9;c-1.1,1.1-1.1,2.9,0,4c1.1,1.1,2.9,1.1,4,0l12-12"/><line fill="none" stroke-linecap="square" stroke-miterlimit="10" x1="8" y1="34" x2="6" y2="36"/><polyline fill="none" stroke-linecap="square" stroke-miterlimit="10" points="38,12 41,15 &#10;&#9;33,23 "/></g></symbol><symbol id="nc-icon-pen-tool" viewBox="0 0 48 48"><title>pen tool</title><g ><polyline data-cap="butt" fill="none" stroke-miterlimit="10" points="24,12 8,18 4,44 30,40 &#10;&#9;36,24 "/><line data-cap="butt" fill="none" stroke-miterlimit="10" x1="4" y1="44" x2="17.2" y2="30.8"/><rect data-color="color-2" x="17.9" y="13.2" transform="matrix(-0.7071 -0.7071 0.7071 -0.7071 43.3137 49.9411)" fill="none" stroke="currentColor" stroke-linecap="square" stroke-miterlimit="10" width="28.3" height="5.7"/><circle fill="none" stroke-linecap="square" stroke-miterlimit="10" cx="20" cy="28" r="4"/></g></symbol><symbol id="nc-icon-todo" viewBox="0 0 48 48"><title>todo</title><g ><polyline fill="none" stroke-linecap="square" stroke-miterlimit="10" points="37,9 42,9 42,46 &#10;&#9;6,46 6,9 11,9 "/><polyline data-color="color-2" fill="none" stroke="currentColor" stroke-linecap="square" stroke-miterlimit="10" points="&#10;&#9;17,28 22,33 31,24 "/><path fill="none" stroke-linecap="square" stroke-miterlimit="10" d="M29,7c0-2.761-2.239-5-5-5&#10;&#9;s-5,2.239-5,5h-4v6h18V7H29z"/></g></symbol><symbol id="nc-icon-pdf" viewBox="0 0 48 48"><title>pdf</title><g ><path data-color="color-2" data-stroke="none" fill="currentColor" d="M20.071,30.645c0,0.878-0.259,1.556-0.776,2.033&#10;&#9;c-0.518,0.479-1.252,0.717-2.205,0.717h-0.596V36h-2.122v-7.853h2.718c0.992,0,1.737,0.217,2.234,0.649&#10;&#9;C19.822,29.23,20.071,29.847,20.071,30.645z M16.494,31.666h0.387c0.319,0,0.572-0.09,0.76-0.27c0.188-0.179,0.282-0.426,0.282-0.74&#10;&#9;c0-0.53-0.293-0.795-0.881-0.795h-0.548V31.666z" stroke-width="0"/><path data-color="color-2" data-stroke="none" fill="currentColor" d="M27.988,31.907c0,1.311-0.361,2.32-1.083,3.029C26.184,35.646,25.17,36,23.863,36&#10;&#9;h-2.541v-7.853h2.718c1.26,0,2.233,0.322,2.919,0.967C27.645,29.759,27.988,30.689,27.988,31.907z M25.786,31.982&#10;&#9;c0-0.72-0.142-1.253-0.427-1.601c-0.284-0.348-0.717-0.521-1.297-0.521h-0.618v4.398h0.473c0.645,0,1.117-0.188,1.418-0.562&#10;&#9;S25.786,32.752,25.786,31.982z" stroke-width="0"/><path data-color="color-2" data-stroke="none" fill="currentColor" d="M31.484,36h-2.089v-7.853h4.641v1.702h-2.551v1.499h2.353v1.702h-2.353V36z" stroke-width="0"/><polyline data-cap="butt" fill="none" stroke-miterlimit="10" points="29,2 29,14 41,14 "/><polyline fill="none" stroke-linecap="square" stroke-miterlimit="10" points="41,23 41,14 29,2 &#10;&#9;7,2 7,23 "/><polyline fill="none" stroke-linecap="square" stroke-miterlimit="10" points="7,41 7,46 41,46 &#10;&#9;41,41 "/><line data-cap="butt" fill="none" stroke-miterlimit="10" x1="46" y1="23" x2="2" y2="23"/><polyline data-cap="butt" fill="none" stroke-miterlimit="10" points="7,18 2,23 2,41 46,41 46,23 &#10;&#9;41,18 "/></g></symbol><symbol id="nc-icon-folder-search" viewBox="0 0 48 48"><title>folder search</title><g ><polygon fill="none" stroke-linecap="square" stroke-miterlimit="10" points="46,46 2,46 2,2 &#10;&#9;18,2 24,10 46,10 "/><line data-cap="butt" data-color="color-2" fill="none" stroke="currentColor" stroke-miterlimit="10" x1="26" y1="30" x2="34" y2="38"/><circle data-color="color-2" fill="none" stroke="currentColor" stroke-linecap="square" stroke-miterlimit="10" cx="21" cy="25" r="7"/></g></symbol><symbol id="nc-icon-flag-points-31" viewBox="0 0 48 48"><title>flag points 31</title><g ><line data-color="color-2" fill="none" stroke="currentColor" stroke-linecap="square" stroke-miterlimit="10" x1="8" y1="2" x2="8" y2="46"/><polygon fill="none" stroke-linecap="square" stroke-miterlimit="10" points="40,26 14,26 14,6 &#10;&#9;40,6 34,16 "/></g></symbol><symbol id="nc-icon-map-pin" viewBox="0 0 48 48"><title>map pin</title><g ><line data-cap="butt" fill="none" stroke-miterlimit="10" x1="18" y1="40" x2="18" y2="21.1"/><line data-cap="butt" fill="none" stroke-miterlimit="10" x1="30" y1="44" x2="30" y2="21.1"/><polyline data-cap="butt" fill="none" stroke-miterlimit="10" points="34,13 46,10 46,40 30,44 &#10;&#9;18,40 2,44 2,14 14,11 "/><path data-color="color-2" fill="none" stroke="currentColor" stroke-linecap="square" stroke-miterlimit="10" d="M34,12&#10;&#9;c0,6.2-10,16.2-10,16.2S14,18.2,14,12c0-6.3,5.2-10,10-10S34,5.7,34,12z"/><circle data-color="color-2" fill="none" stroke="currentColor" stroke-linecap="square" stroke-miterlimit="10" cx="24" cy="12" r="2"/></g></symbol><symbol id="nc-icon-newsletter" viewBox="0 0 48 48"><title>newsletter</title><g ><polyline data-cap="butt" fill="none" stroke-miterlimit="10" points="10,16.2 2,22 2,46 46,46 &#10;&#9;46,22 38,16.2 "/><polyline data-cap="butt" fill="none" stroke-miterlimit="10" points="10,26.4 10,2 38,2 38,26.4 &#10;&#9;"/><line data-cap="butt" fill="none" stroke-miterlimit="10" x1="2" y1="22" x2="46" y2="46"/><line data-cap="butt" fill="none" stroke-miterlimit="10" x1="46" y1="22" x2="24" y2="34"/><line data-color="color-2" fill="none" stroke="currentColor" stroke-linecap="square" stroke-miterlimit="10" x1="18" y1="12" x2="30" y2="12"/><line data-color="color-2" fill="none" stroke="currentColor" stroke-linecap="square" stroke-miterlimit="10" x1="18" y1="20" x2="30" y2="20"/></g></symbol><symbol id="nc-icon-road-sign-left" viewBox="0 0 48 48"><title>road sign left</title><g ><polyline data-color="color-2" fill="none" stroke="currentColor" stroke-linecap="square" stroke-miterlimit="10" points="&#10;&#9;31,24 31,46 21,46 21,24 "/><polyline data-color="color-2" fill="none" stroke="currentColor" stroke-linecap="square" stroke-miterlimit="10" points="&#10;&#9;21,8 21,2 31,2 31,8 "/><line data-color="color-2" fill="none" stroke="currentColor" stroke-linecap="square" stroke-miterlimit="10" x1="26" y1="46" x2="26" y2="38"/><polygon fill="none" stroke-linecap="square" stroke-miterlimit="10" points="44,24 10,24 4,16 &#10;&#9;10,8 44,8 "/></g></symbol><symbol id="nc-icon-eye-17" viewBox="0 0 48 48"><title>eye 17</title><g ><path fill="none" stroke-linecap="square" stroke-miterlimit="10" d="M4,24c0,0,7.9-14,20-14&#10;&#9;c12,0,20,14,20,14s-8.1,14-20,14C12,38,4,24,4,24z"/><circle data-color="color-2" fill="none" stroke="currentColor" stroke-linecap="square" stroke-miterlimit="10" cx="24" cy="24" r="7"/></g></symbol><symbol id="nc-icon-badge-14" viewBox="0 0 48 48"><title>badge 14</title><g ><line data-color="color-2" fill="none" stroke="currentColor" stroke-linecap="square" stroke-miterlimit="10" x1="28" y1="22" x2="38" y2="22"/><line data-color="color-2" fill="none" stroke="currentColor" stroke-linecap="square" stroke-miterlimit="10" x1="28" y1="30" x2="38" y2="30"/><rect data-color="color-2" x="10" y="20" fill="none" stroke="currentColor" stroke-linecap="square" stroke-miterlimit="10" width="12" height="12"/><path fill="none" stroke-linecap="square" stroke-miterlimit="10" d="M38,6c0,2.209-1.791,4-4,4&#10;&#9;s-4-1.791-4-4H18c0,2.209-1.791,4-4,4s-4-1.791-4-4H2v36h44V6H38z"/></g></symbol></svg>